<svg width="24" height="39" viewBox="0 0 24 39" fill="none" xmlns="http://www.w3.org/2000/svg">
<path d="M10.1667 2.84711C8.04896 2.84711 6.04633 2.84711 4.66667 2.84711C2.83333 2.84711 1 4.69422 1 6.54134H23C23 4.69422 21.1667 2.84711 19.3333 2.84711C18.1377 2.84711 16.0891 2.84711 13.8333 2.84711M10.1667 2.84711C10.1667 2.23141 10.5333 1 12 1C13.4667 1 13.8333 2.23141 13.8333 2.84711M10.1667 2.84711C11.383 2.84711 12.6373 2.84711 13.8333 2.84711M12 32.4587V13.9875M17.5 32.4587V13.9875M6.5 32.4587V13.9875M1 34.3058C1 36.1529 2.83333 38 4.66667 38H19.3333C21.1667 38 23 36.1529 23 34.3058C23 31.3504 23 15.8347 23 8.44621H1V34.3058Z" stroke="#FF0000"/>
</svg>
