<svg width="36" height="30" viewBox="0 0 36 30" fill="none" xmlns="http://www.w3.org/2000/svg">
<path d="M30.6218 28.6474V20.1405C30.6218 13.335 26.3431 11.6336 24.2037 11.6336M4.94922 28.6474V20.1405C4.94922 13.335 9.22799 11.6336 11.3674 11.6336M17.7855 13.7604C22.9201 13.7604 24.2037 9.5069 24.2037 7.38018C24.2037 2.27604 19.9249 1 17.7855 1C12.651 1 11.3674 5.25345 11.3674 7.38018C11.3674 12.4843 15.6461 13.7604 17.7855 13.7604Z" stroke="#397DFF" stroke-linecap="round"/>
<path d="M0.999592 22.723V17.2543C0.999592 12.8793 3.63268 11.7856 4.94923 11.7856M11.0137 5.4925C10.4684 5.15971 9.77464 4.94965 8.89886 4.94965C7.58231 4.94965 4.94923 5.76995 4.94923 9.05119C4.94923 10.055 5.37509 11.7959 6.85218 12.6504" stroke="#397DFF" stroke-linecap="round"/>
<path d="M34.5707 22.723V17.2543C34.5707 12.8793 31.9376 11.7856 30.6211 11.7856M24.5566 5.4925C25.1019 5.15971 25.7957 4.94965 26.6715 4.94965C27.988 4.94965 30.6211 5.76995 30.6211 9.05119C30.6211 10.055 30.1952 11.7959 28.7181 12.6504" stroke="#397DFF" stroke-linecap="round"/>
</svg>
