<svg width="86" height="73" viewBox="0 0 86 73" fill="none" xmlns="http://www.w3.org/2000/svg">
<path d="M40.1919 16.744H49.4079V49H40.1919L27.9039 31.336V49H18.6879V16.744H27.9039L40.1919 34.408V16.744ZM72.3496 23.656C75.5496 23.656 78.2696 24.936 80.5096 27.496C82.7496 30.024 83.8696 33.096 83.8696 36.712C83.8696 40.328 82.7496 43.416 80.5096 45.976C78.2696 48.504 75.5496 49.768 72.3496 49.768C69.5656 49.768 67.2616 48.68 65.4376 46.504V61.288H56.2216V24.424H65.4376V26.92C67.2616 24.744 69.5656 23.656 72.3496 23.656ZM66.7816 40.504C67.6776 41.56 68.7656 42.088 70.0456 42.088C71.3256 42.088 72.4136 41.56 73.3096 40.504C74.2056 39.448 74.6536 38.184 74.6536 36.712C74.6536 35.24 74.2056 33.976 73.3096 32.92C72.4136 31.864 71.3256 31.336 70.0456 31.336C68.7656 31.336 67.6776 31.864 66.7816 32.92C65.8856 33.976 65.4376 35.24 65.4376 36.712C65.4376 38.184 65.8856 39.448 66.7816 40.504Z" fill="#397DFF"/>
<path d="M6.31956 37.1108L12.1258 16.1886L30.5712 4.73356L24.7649 25.6557L6.31956 37.1108Z" fill="#5B93FF"/>
<path d="M16.6811 36.4481L12.468 33.2924L24.7649 25.6557L28.6357 11.7076L32.8488 14.8633L28.978 28.8114L16.6811 36.4481Z" fill="#4D79CE"/>
<path d="M18.4456 20.9222L13.0001 33L13 39" stroke="#E2DB34" stroke-width="0.25" stroke-linecap="round"/>
<path d="M12.0001 39L13 38.5L14.0001 39L14 41L12 41L12.0001 39Z" fill="#E2DB34"/>
</svg>
