<svg width="36" height="38" viewBox="0 0 36 38" fill="none" xmlns="http://www.w3.org/2000/svg">
<path d="M30.1429 8.2857H1C1 6.66665 1.97143 3.42856 5.85714 3.42856H25.2857C26.9048 3.42856 30.1429 4.39999 30.1429 8.2857Z" fill="#5297FF" fill-opacity="0.5"/>
<path d="M1 8.28571C1 6.66667 1.97143 3.42857 5.85714 3.42857H8.28571H22.8571H25.2857C26.9048 3.42857 30.1429 4.4 30.1429 8.28571H1Z" fill="#5297FF" fill-opacity="0.5"/>
<path d="M15.5714 27.7143C15.5714 24.4762 17.5143 18 25.2857 18C28.5238 18 35 19.9429 35 27.7143C35 30.9524 33.0571 37.4286 25.2857 37.4286C22.0476 37.4286 15.5714 35.4857 15.5714 27.7143Z" fill="#5297FF" fill-opacity="0.5"/>
<path d="M1 8.28571C1 6.66667 1.97143 3.42857 5.85714 3.42857H8.28571M1 8.28571V27.7143C1 31.6 4.2381 32.5714 5.85714 32.5714H13.1429M1 8.28571H30.1429M30.1429 8.28571C30.1429 4.4 26.9048 3.42857 25.2857 3.42857H22.8571M30.1429 8.28571V15.5714M25.2857 22.8571V27.7143L30.1429 32.5714M22.8571 3.42857V1M22.8571 3.42857H8.28571M8.28571 3.42857V1M25.2857 18C17.5143 18 15.5714 24.4762 15.5714 27.7143C15.5714 35.4857 22.0476 37.4286 25.2857 37.4286C33.0571 37.4286 35 30.9524 35 27.7143C35 19.9429 28.5238 18 25.2857 18Z" stroke="white" stroke-linecap="round"/>
</svg>
