<svg width="314" height="73" viewBox="0 0 314 73" fill="none" xmlns="http://www.w3.org/2000/svg">
<g filter="url(#filter0_d_53_109)">
<path d="M40.1918 16.744H49.4078V49H40.1918L27.9038 31.336V49H18.6878V16.744H27.9038L40.1918 34.408V16.744ZM80.0295 36.712C80.0295 37.224 79.9655 37.992 79.8375 39.016H64.1895C64.3815 39.976 64.9895 40.728 66.0135 41.272C67.0375 41.816 68.2855 42.088 69.7575 42.088C70.9095 42.088 72.0135 41.96 73.0695 41.704C74.1255 41.448 74.8935 41.192 75.3735 40.936L76.0935 40.552L78.4455 47.464C78.1895 47.624 77.8055 47.832 77.2935 48.088C76.8135 48.344 75.7415 48.68 74.0775 49.096C72.4135 49.544 70.6855 49.768 68.8935 49.768C64.1895 49.768 60.6375 48.552 58.2375 46.12C55.8695 43.656 54.6855 40.52 54.6855 36.712C54.6855 32.904 55.8055 29.784 58.0455 27.352C60.2855 24.888 63.5175 23.656 67.7415 23.656C71.6775 23.656 74.7015 24.808 76.8135 27.112C78.9575 29.384 80.0295 32.584 80.0295 36.712ZM64.1895 34.408H70.6215C70.6215 33.32 70.3335 32.408 69.7575 31.672C69.2135 30.936 68.4135 30.568 67.3575 30.568C66.4295 30.568 65.6615 30.952 65.0535 31.72C64.4775 32.488 64.1895 33.384 64.1895 34.408ZM102.214 15.208H111.43V49H102.214V46.504C100.39 48.68 98.0858 49.768 95.3018 49.768C92.1018 49.768 89.3818 48.504 87.1418 45.976C84.9018 43.416 83.7818 40.328 83.7818 36.712C83.7818 33.096 84.9018 30.024 87.1418 27.496C89.3818 24.936 92.1018 23.656 95.3018 23.656C98.0858 23.656 100.39 24.744 102.214 26.92V15.208ZM94.3418 40.504C95.2378 41.56 96.3258 42.088 97.6058 42.088C98.8858 42.088 99.9738 41.56 100.87 40.504C101.766 39.448 102.214 38.184 102.214 36.712C102.214 35.24 101.766 33.976 100.87 32.92C99.9738 31.864 98.8858 31.336 97.6058 31.336C96.3258 31.336 95.2378 31.864 94.3418 32.92C93.4458 33.976 92.9978 35.24 92.9978 36.712C92.9978 38.184 93.4458 39.448 94.3418 40.504ZM141.316 36.712C141.316 37.224 141.252 37.992 141.124 39.016H125.476C125.668 39.976 126.276 40.728 127.3 41.272C128.324 41.816 129.572 42.088 131.044 42.088C132.196 42.088 133.3 41.96 134.356 41.704C135.412 41.448 136.18 41.192 136.66 40.936L137.38 40.552L139.732 47.464C139.476 47.624 139.092 47.832 138.58 48.088C138.1 48.344 137.028 48.68 135.364 49.096C133.7 49.544 131.972 49.768 130.18 49.768C125.476 49.768 121.924 48.552 119.524 46.12C117.156 43.656 115.972 40.52 115.972 36.712C115.972 32.904 117.092 29.784 119.332 27.352C121.572 24.888 124.804 23.656 129.028 23.656C132.964 23.656 135.988 24.808 138.1 27.112C140.244 29.384 141.316 32.584 141.316 36.712ZM125.476 34.408H131.908C131.908 33.32 131.62 32.408 131.044 31.672C130.5 30.936 129.7 30.568 128.644 30.568C127.716 30.568 126.948 30.952 126.34 31.72C125.764 32.488 125.476 33.384 125.476 34.408ZM145.854 15.208H155.07V49H145.854V15.208ZM178.393 24.424H187.609V49H178.393V46.504C176.569 48.68 174.265 49.768 171.481 49.768C168.281 49.768 165.561 48.504 163.321 45.976C161.081 43.416 159.961 40.328 159.961 36.712C159.961 33.096 161.081 30.024 163.321 27.496C165.561 24.936 168.281 23.656 171.481 23.656C174.265 23.656 176.569 24.744 178.393 26.92V24.424ZM170.521 40.504C171.417 41.56 172.505 42.088 173.785 42.088C175.065 42.088 176.153 41.56 177.049 40.504C177.945 39.448 178.393 38.184 178.393 36.712C178.393 35.24 177.945 33.976 177.049 32.92C176.153 31.864 175.065 31.336 173.785 31.336C172.505 31.336 171.417 31.864 170.521 32.92C169.625 33.976 169.177 35.24 169.177 36.712C169.177 38.184 169.625 39.448 170.521 40.504ZM210.19 23.656C213.39 23.656 216.11 24.936 218.35 27.496C220.59 30.024 221.71 33.096 221.71 36.712C221.71 40.328 220.59 43.416 218.35 45.976C216.11 48.504 213.39 49.768 210.19 49.768C207.406 49.768 205.102 48.68 203.278 46.504V61.288H194.062V24.424H203.278V26.92C205.102 24.744 207.406 23.656 210.19 23.656ZM204.622 40.504C205.518 41.56 206.606 42.088 207.886 42.088C209.166 42.088 210.254 41.56 211.15 40.504C212.046 39.448 212.494 38.184 212.494 36.712C212.494 35.24 212.046 33.976 211.15 32.92C210.254 31.864 209.166 31.336 207.886 31.336C206.606 31.336 205.518 31.864 204.622 32.92C203.726 33.976 203.278 35.24 203.278 36.712C203.278 38.184 203.726 39.448 204.622 40.504ZM243.898 24.424H253.114V49H243.898V46.504C242.074 48.68 239.77 49.768 236.986 49.768C233.786 49.768 231.066 48.504 228.826 45.976C226.586 43.416 225.466 40.328 225.466 36.712C225.466 33.096 226.586 30.024 228.826 27.496C231.066 24.936 233.786 23.656 236.986 23.656C239.77 23.656 242.074 24.744 243.898 26.92V24.424ZM236.026 40.504C236.922 41.56 238.01 42.088 239.29 42.088C240.57 42.088 241.658 41.56 242.554 40.504C243.45 39.448 243.898 38.184 243.898 36.712C243.898 35.24 243.45 33.976 242.554 32.92C241.658 31.864 240.57 31.336 239.29 31.336C238.01 31.336 236.922 31.864 236.026 32.92C235.13 33.976 234.682 35.24 234.682 36.712C234.682 38.184 235.13 39.448 236.026 40.504ZM268.783 29.464C270.319 25.912 273.391 23.976 277.999 23.656V34.072C276.847 33.368 275.567 33.032 274.159 33.064C272.847 33.16 271.615 33.736 270.463 34.792C269.343 35.848 268.783 37.24 268.783 38.968V49H259.567V24.424H268.783V29.464ZM306.706 36.712C306.706 37.224 306.642 37.992 306.514 39.016H290.866C291.058 39.976 291.666 40.728 292.69 41.272C293.714 41.816 294.962 42.088 296.434 42.088C297.586 42.088 298.69 41.96 299.746 41.704C300.802 41.448 301.57 41.192 302.05 40.936L302.77 40.552L305.122 47.464C304.866 47.624 304.482 47.832 303.97 48.088C303.49 48.344 302.418 48.68 300.754 49.096C299.09 49.544 297.362 49.768 295.57 49.768C290.866 49.768 287.314 48.552 284.914 46.12C282.546 43.656 281.362 40.52 281.362 36.712C281.362 32.904 282.482 29.784 284.722 27.352C286.962 24.888 290.194 23.656 294.418 23.656C298.354 23.656 301.378 24.808 303.49 27.112C305.634 29.384 306.706 32.584 306.706 36.712ZM290.866 34.408H297.298C297.298 33.32 297.01 32.408 296.434 31.672C295.89 30.936 295.09 30.568 294.034 30.568C293.106 30.568 292.338 30.952 291.73 31.72C291.154 32.488 290.866 33.384 290.866 34.408Z" fill="#397DFF"/>
<path d="M6.31956 37.1108L12.1258 16.1886L30.5712 4.73356L24.7649 25.6557L6.31956 37.1108Z" fill="#5B93FF"/>
<path d="M16.6811 36.4481L12.468 33.2924L24.7649 25.6557L28.6357 11.7076L32.8488 14.8633L28.978 28.8114L16.6811 36.4481Z" fill="#4D79CE"/>
<path d="M18.4456 20.9222L13.0001 33L13 39" stroke="#E2DB34" stroke-width="0.25" stroke-linecap="round"/>
<path d="M12.0001 39L13 38.5L14.0001 39L14 41L12 41L12.0001 39Z" fill="#E2DB34"/>
</g>
<defs>
<filter id="filter0_d_53_109" x="6.31958" y="4.73355" width="307.386" height="62.5544" filterUnits="userSpaceOnUse" color-interpolation-filters="sRGB">
<feFlood flood-opacity="0" result="BackgroundImageFix"/>
<feColorMatrix in="SourceAlpha" type="matrix" values="0 0 0 0 0 0 0 0 0 0 0 0 0 0 0 0 0 0 127 0" result="hardAlpha"/>
<feOffset dx="4" dy="3"/>
<feGaussianBlur stdDeviation="1.5"/>
<feComposite in2="hardAlpha" operator="out"/>
<feColorMatrix type="matrix" values="0 0 0 0 0 0 0 0 0 0 0 0 0 0 0 0 0 0 0.25 0"/>
<feBlend mode="normal" in2="BackgroundImageFix" result="effect1_dropShadow_53_109"/>
<feBlend mode="normal" in="SourceGraphic" in2="effect1_dropShadow_53_109" result="shape"/>
</filter>
</defs>
</svg>
