<svg width="240" height="240" viewBox="0 0 240 240" fill="none" xmlns="http://www.w3.org/2000/svg">
<circle cx="120" cy="120" r="120" fill="#B5D2FF"/>
<path d="M85 172C113.332 136.754 128.505 137.432 155 172H85Z" fill="#FFD540"/>
<path d="M120 119.5C105.849 114.327 100.493 110.547 93.75 102C113.861 113.452 125.334 113.577 145.766 102.269C140.311 109.183 135.014 112.97 120 119.5Z" fill="#FFD540"/>
<path d="M155 172H85C86.1963 140.34 94.2119 128.662 120 119.5C147.532 131.135 154.335 141.912 155 172Z" stroke="#397DFF" stroke-width="3"/>
<path d="M155 67H85C86.1963 98.6597 94.2119 110.338 120 119.5C147.532 107.865 154.335 97.0878 155 67Z" stroke="#397DFF" stroke-width="3"/>
</svg>
