<svg width="36" height="39" viewBox="0 0 36 39" fill="none" xmlns="http://www.w3.org/2000/svg">
<path fill-rule="evenodd" clip-rule="evenodd" d="M5.85714 1C4.2381 1 1 1.98667 1 5.93333V33.0667C1 37.0133 4.2381 38 5.85714 38H31.3571C30.1429 38 27.7143 37.0133 27.7143 33.0667V5.93333C27.7143 4.28889 26.7429 1 22.8571 1H5.85714ZM3.42857 10.8667H25.2857V5.93333C25.2857 5.11111 24.8 3.46667 22.8571 3.46667H5.85714C5.04762 3.46667 3.42857 3.96 3.42857 5.93333V10.8667ZM15.5714 33.0667V23.2H25.2857V33.0667H15.5714Z" fill="white" fill-opacity="0.25"/>
<path d="M31.3571 38C30.1429 38 27.7143 37.0133 27.7143 33.0667V5.93333C27.7143 4.28889 26.7429 1 22.8571 1H5.85714C4.2381 1 1 1.98667 1 5.93333V33.0667C1 37.0133 4.2381 38 5.85714 38H31.3571ZM31.3571 38C34.2714 38 35 34.7111 35 33.0667V13.3333H28.9286M3.42857 15.8H25.2857M3.42857 20.7333H25.2857M3.42857 25.6667H11.9286M3.42857 30.6H11.9286M3.42857 10.8667H25.2857V5.93333C25.2857 5.11111 24.8 3.46667 22.8571 3.46667H5.85714C5.04762 3.46667 3.42857 3.96 3.42857 5.93333V10.8667ZM15.5714 23.2V33.0667H25.2857V23.2H15.5714Z" stroke="white"/>
</svg>
